<svg width="20" height="20" viewBox="0 0 20 20" fill="none" xmlns="http://www.w3.org/2000/svg">
<g clip-path="url(#clip0_1_371)">
<path d="M13.7491 0H6.24915C2.7979 0 -0.000854492 2.79875 -0.000854492 6.25V13.75C-0.000854492 17.2012 2.7979 20 6.24915 20H13.7491C17.2004 20 19.9991 17.2012 19.9991 13.75V6.25C19.9991 2.79875 17.2004 0 13.7491 0ZM18.1241 13.75C18.1241 16.1625 16.1616 18.125 13.7491 18.125H6.24915C3.83665 18.125 1.87415 16.1625 1.87415 13.75V6.25C1.87415 3.8375 3.83665 1.875 6.24915 1.875H13.7491C16.1616 1.875 18.1241 3.8375 18.1241 6.25V13.75Z" fill="white"/>
<path d="M6.99915 6.61803L13.7631 10L6.99915 13.382L6.99915 6.61803Z" stroke="white" stroke-width="2"/>
</g>
<defs>
<clipPath id="clip0_1_371">
<rect width="20" height="20" fill="white" transform="translate(-0.000854492)"/>
</clipPath>
</defs>
</svg>
