<svg width="70" height="69" viewBox="0 0 70 69" fill="none" xmlns="http://www.w3.org/2000/svg">
<g clip-path="url(#clip0_276_1033)">
<g clip-path="url(#clip1_276_1033)">
<path d="M35.0694 1.3C53.3983 1.3 68.2694 16.1711 68.2694 34.5C68.2694 52.8289 53.3983 67.7 35.0694 67.7C16.7405 67.7 1.86937 52.8289 1.86937 34.5C1.86937 16.1711 16.7405 1.3 35.0694 1.3Z" stroke="white" stroke-opacity="0.9" stroke-width="2.6" stroke-miterlimit="10"/>
<path d="M27.9082 48.5902L48.4734 36.1666C48.76 35.992 48.997 35.7466 49.1614 35.4539C49.3258 35.1612 49.4121 34.8312 49.4121 34.4956C49.4121 34.1599 49.3258 33.8299 49.1614 33.5372C48.997 33.2445 48.76 32.9991 48.4734 32.8245L27.9082 20.4009C27.6134 20.2243 27.2769 20.1293 26.9333 20.1256C26.5897 20.1219 26.2513 20.2097 25.9528 20.38C25.6544 20.5503 25.4065 20.7969 25.2348 21.0945C25.0631 21.3922 24.9737 21.7301 24.9756 22.0738V46.9173C24.9737 47.261 25.0631 47.5989 25.2348 47.8966C25.4065 48.1942 25.6544 48.4408 25.9528 48.6111C26.2513 48.7814 26.5897 48.8692 26.9333 48.8655C27.2769 48.8618 27.6134 48.7668 27.9082 48.5902Z" fill="white" fill-opacity="0.9"/>
</g>
</g>
<defs>
<clipPath id="clip0_276_1033">
<rect width="68.8887" height="69" fill="white" transform="translate(0.569366)"/>
</clipPath>
<clipPath id="clip1_276_1033">
<rect width="69" height="69" fill="white" transform="translate(0.569366)"/>
</clipPath>
</defs>
</svg>
