<svg width="25" height="24" viewBox="0 0 25 24" fill="none" xmlns="http://www.w3.org/2000/svg">
<path fill-rule="evenodd" clip-rule="evenodd" d="M20.4193 4.00809C18.3143 1.90063 15.5148 0.739517 12.5324 0.738281C6.38695 0.738281 1.38542 5.73967 1.38295 11.8868C1.38213 13.8518 1.89546 15.77 2.87119 17.4608L1.28943 23.2383L7.19994 21.6878C8.82853 22.5762 10.662 23.0444 12.5279 23.0449H12.5326C18.6774 23.0449 23.6795 18.0431 23.6818 11.8957C23.683 8.9165 22.5244 6.1154 20.4193 4.00809ZM12.5324 21.162H12.5286C10.8658 21.1613 9.23502 20.7144 7.81202 19.8703L7.47378 19.6694L3.96639 20.5895L4.90256 17.1698L4.68215 16.8192C3.75449 15.3438 3.26464 13.6384 3.26546 11.8875C3.26738 6.77815 7.42461 2.62134 12.5361 2.62134C15.0114 2.62216 17.3381 3.58731 19.0877 5.33894C20.8373 7.09058 21.8002 9.41885 21.7994 11.895C21.7972 17.0048 17.6403 21.162 12.5324 21.162ZM17.6155 14.2215C17.337 14.082 15.9673 13.4083 15.7119 13.3152C15.4567 13.2222 15.2708 13.1759 15.0852 13.4547C14.8994 13.7335 14.3656 14.3611 14.203 14.5469C14.0404 14.7328 13.8781 14.7561 13.5995 14.6166C13.3208 14.4772 12.4233 14.1829 11.3591 13.2339C10.531 12.4952 9.97193 11.5829 9.80933 11.3041C9.64701 11.0251 9.80796 10.8888 9.93156 10.7356C10.2331 10.3611 10.5351 9.96844 10.628 9.78264C10.7209 9.59669 10.6744 9.43396 10.6046 9.29457C10.5351 9.15518 9.97798 7.78395 9.74589 7.22598C9.51957 6.68298 9.29009 6.75632 9.11898 6.7478C8.95666 6.7397 8.77085 6.73805 8.58504 6.73805C8.39938 6.73805 8.09753 6.80768 7.84209 7.08673C7.5868 7.36565 6.86719 8.03952 6.86719 9.41075C6.86719 10.782 7.86544 12.1067 8.00469 12.2926C8.14394 12.4785 9.96919 15.2924 12.7637 16.499C13.4284 16.7863 13.9472 16.9575 14.3519 17.0859C15.0193 17.298 15.6265 17.268 16.1066 17.1963C16.6419 17.1163 17.7547 16.5223 17.987 15.8717C18.2191 15.2209 18.2191 14.6632 18.1493 14.5469C18.0799 14.4307 17.894 14.3611 17.6155 14.2215Z" fill="#22B856"/>
</svg>
