<svg width="20" height="20" viewBox="0 0 20 20" fill="none" xmlns="http://www.w3.org/2000/svg">
<g clip-path="url(#clip0_1_377)">
<path d="M13.7491 0H6.24915C2.7979 0 -0.000854492 2.79875 -0.000854492 6.25V13.75C-0.000854492 17.2012 2.7979 20 6.24915 20H13.7491C17.2004 20 19.9991 17.2012 19.9991 13.75V6.25C19.9991 2.79875 17.2004 0 13.7491 0ZM18.1241 13.75C18.1241 16.1625 16.1616 18.125 13.7491 18.125H6.24915C3.83665 18.125 1.87415 16.1625 1.87415 13.75V6.25C1.87415 3.8375 3.83665 1.875 6.24915 1.875H13.7491C16.1616 1.875 18.1241 3.8375 18.1241 6.25V13.75Z" fill="white"/>
<path d="M9.99915 5C7.2379 5 4.99915 7.23875 4.99915 10C4.99915 12.7613 7.2379 15 9.99915 15C12.7604 15 14.9991 12.7613 14.9991 10C14.9991 7.23875 12.7604 5 9.99915 5ZM9.99915 13.125C8.27665 13.125 6.87415 11.7225 6.87415 10C6.87415 8.27625 8.27665 6.875 9.99915 6.875C11.7216 6.875 13.1241 8.27625 13.1241 10C13.1241 11.7225 11.7216 13.125 9.99915 13.125Z" fill="white"/>
<path d="M15.3741 5.29148C15.7421 5.29148 16.0404 4.99319 16.0404 4.62523C16.0404 4.25727 15.7421 3.95898 15.3741 3.95898C15.0062 3.95898 14.7079 4.25727 14.7079 4.62523C14.7079 4.99319 15.0062 5.29148 15.3741 5.29148Z" fill="white"/>
</g>
<defs>
<clipPath id="clip0_1_377">
<rect width="20" height="20" fill="white" transform="translate(-0.000854492)"/>
</clipPath>
</defs>
</svg>
