<svg width="155" height="30" viewBox="0 0 155 30" fill="none" xmlns="http://www.w3.org/2000/svg">
<path fill-rule="evenodd" clip-rule="evenodd" d="M48.8985 24.9116L52.6602 24.3124C52.9931 25.1098 53.4076 25.6715 53.8993 26.0042C54.3933 26.3302 55.0614 26.4976 55.9147 26.4976C56.7967 26.4976 57.5001 26.2993 58.027 25.8984C58.3953 25.6253 58.5805 25.2905 58.5805 24.9028C58.5805 24.6362 58.4879 24.4005 58.2982 24.1935C58.0998 23.9952 57.5662 23.7507 56.693 23.4621C54.3602 22.6889 52.9159 22.07 52.3581 21.6206C51.4871 20.9201 51.0527 19.9993 51.0527 18.8627C51.0527 17.726 51.4761 16.7436 52.3206 15.9197C53.4958 14.7721 55.2444 14.2015 57.5574 14.2015C59.4007 14.2015 60.7943 14.543 61.7336 15.2192C62.6795 15.8955 63.2726 16.8119 63.5262 17.9683L59.9586 18.5939C59.769 18.0697 59.4647 17.6732 59.0457 17.411C58.4702 17.0564 57.7823 16.8824 56.9753 16.8824C56.1683 16.8824 55.5861 17.0167 55.2311 17.2877C54.8761 17.5586 54.702 17.8736 54.702 18.2217C54.702 18.5851 54.8806 18.8803 55.2422 19.116C55.4627 19.2636 56.1881 19.5169 57.4052 19.876C59.2905 20.4289 60.5495 20.9686 61.1845 21.5016C62.0842 22.2528 62.5318 23.1559 62.5318 24.2089C62.5318 25.5724 61.9607 26.7553 60.8163 27.7598C59.6786 28.7599 58.0689 29.2621 55.9897 29.2621C53.9192 29.2621 52.325 28.8788 51.1939 28.1189C50.0693 27.3567 49.3042 26.2883 48.8985 24.9116Z" fill="white"/>
<path fill-rule="evenodd" clip-rule="evenodd" d="M67.7885 14.5562H71.6604L68.655 28.9008H64.7809L67.7885 14.5562Z" fill="white"/>
<path fill-rule="evenodd" clip-rule="evenodd" d="M72.4387 28.9008L76.5885 9.11304H80.456L76.3128 28.9008H72.4387Z" fill="white"/>
<path fill-rule="evenodd" clip-rule="evenodd" d="M80.7338 22.9488C80.7338 20.2834 81.4812 18.1599 82.9784 16.5738C84.4778 14.99 86.4446 14.197 88.8855 14.197C90.9979 14.197 92.6472 14.783 93.8356 15.9527C95.0219 17.1223 95.615 18.6929 95.615 20.6733C95.615 22.9994 94.872 25.0172 93.388 26.7112C91.9041 28.4095 89.9174 29.2576 87.4258 29.2576C86.0742 29.2576 84.8769 28.9866 83.8339 28.447C82.791 27.9029 82.0126 27.1341 81.5011 26.145C80.9917 25.1516 80.7338 24.0876 80.7338 22.9488ZM91.7696 20.1622C91.7696 19.237 91.5028 18.4947 90.967 17.9374C90.4312 17.3801 89.7454 17.1003 88.9009 17.1003C88.0675 17.1003 87.3244 17.3625 86.6783 17.8823C86.0323 18.4022 85.5296 19.1621 85.1701 20.1534C84.8107 21.1491 84.6299 22.0654 84.6299 22.8981C84.6299 23.9334 84.9055 24.7551 85.4634 25.363C86.0213 25.971 86.7224 26.275 87.5647 26.275C88.6253 26.275 89.5095 25.8146 90.2283 24.8982C91.258 23.603 91.7696 22.0236 91.7696 20.1622Z" fill="white"/>
<path fill-rule="evenodd" clip-rule="evenodd" d="M96.5521 24.9116L100.314 24.3124C100.645 25.1098 101.061 25.6715 101.553 26.0042C102.047 26.3302 102.715 26.4976 103.568 26.4976C104.448 26.4976 105.154 26.2993 105.681 25.8984C106.049 25.6253 106.234 25.2905 106.234 24.9028C106.234 24.6362 106.142 24.4005 105.952 24.1935C105.753 23.9952 105.22 23.7507 104.347 23.4621C102.014 22.6889 100.572 22.07 100.014 21.6206C99.143 20.9201 98.7086 19.9993 98.7086 18.8627C98.7086 17.726 99.1319 16.7436 99.9764 15.9197C101.152 14.7721 102.9 14.2015 105.215 14.2015C107.059 14.2015 108.452 14.543 109.392 15.2192C110.338 15.8955 110.931 16.8119 111.184 17.9683L107.617 18.5917C107.427 18.0675 107.123 17.671 106.704 17.4088C106.128 17.0542 105.44 16.8801 104.633 16.8801C103.826 16.8801 103.246 17.0145 102.891 17.2855C102.536 17.5564 102.362 17.8714 102.362 18.2195C102.362 18.5829 102.541 18.8781 102.9 19.1138C103.121 19.2614 103.846 19.5147 105.063 19.8738C106.949 20.4267 108.208 20.9664 108.843 21.4994C109.742 22.2506 110.188 23.1537 110.188 24.2067C110.188 25.5702 109.617 26.7531 108.472 27.7576C107.334 28.7577 105.725 29.2599 103.645 29.2599C101.575 29.2599 99.9808 28.8766 98.8519 28.1167C97.723 27.3567 96.9578 26.2883 96.5521 24.9116Z" fill="white"/>
<path fill-rule="evenodd" clip-rule="evenodd" d="M117.912 18.5653L114.121 18.2481C114.556 16.9771 115.31 15.9858 116.39 15.2721C117.468 14.5584 118.893 14.1993 120.674 14.1993C122.522 14.1993 123.891 14.5716 124.773 15.314C125.658 16.0607 126.101 16.9661 126.101 18.041C126.101 18.475 126.063 18.9354 125.986 19.4178C125.907 19.9068 125.64 21.1866 125.179 23.2595C124.796 24.9733 124.608 26.176 124.608 26.8611C124.608 27.4735 124.718 28.1497 124.934 28.9009H121.149C121.001 28.381 120.908 27.8369 120.873 27.2796C120.306 27.9118 119.651 28.3986 118.913 28.7445C118.174 29.0903 117.429 29.2599 116.681 29.2599C115.491 29.2599 114.509 28.8678 113.735 28.0858C112.961 27.3016 112.573 26.2994 112.573 25.068C112.573 23.6956 112.997 22.5942 113.85 21.7748C114.703 20.9509 116.225 20.4531 118.414 20.2813C120.264 20.1249 121.499 19.9399 122.121 19.724C122.282 19.1799 122.366 18.7481 122.366 18.4243C122.366 18.0058 122.2 17.6599 121.863 17.378C121.53 17.0982 121.034 16.9595 120.372 16.9595C119.68 16.9595 119.133 17.0982 118.732 17.378C118.331 17.6577 118.055 18.0543 117.912 18.5653ZM121.605 22.1845C121.369 22.2484 121.06 22.3079 120.674 22.3629C118.727 22.5986 117.455 22.9445 116.862 23.4005C116.439 23.7331 116.225 24.1736 116.225 24.7266C116.225 25.1869 116.386 25.5702 116.714 25.8874C117.036 26.2002 117.466 26.3566 117.995 26.3566C118.58 26.3566 119.133 26.2134 119.651 25.9227C120.172 25.6363 120.56 25.2684 120.813 24.8169C121.071 24.3653 121.298 23.6604 121.495 22.7022L121.605 22.1845Z" fill="white"/>
<path fill-rule="evenodd" clip-rule="evenodd" d="M130.881 14.5561H134.583L134.211 16.4395C135.132 15.6288 135.999 15.0583 136.802 14.7125C137.604 14.3666 138.449 14.197 139.337 14.197C140.521 14.197 141.458 14.5385 142.144 15.2235C142.825 15.9086 143.167 16.8162 143.167 17.9506C143.163 18.4528 142.997 19.4023 142.669 20.7966L140.931 28.8985H137.057L138.819 20.7746C139.073 19.5586 139.207 18.8361 139.22 18.596C139.22 18.085 139.073 17.6885 138.777 17.3977C138.477 17.1069 138.067 16.9593 137.542 16.9593C136.967 16.9593 136.33 17.1994 135.628 17.6775C134.927 18.1555 134.378 18.7921 133.977 19.5785C133.677 20.1358 133.34 21.2834 132.963 23.0104L131.746 28.8963H127.871L130.881 14.5561Z" fill="white"/>
<path fill-rule="evenodd" clip-rule="evenodd" d="M147.723 14.5562H151.595L148.589 28.9008H144.717L147.723 14.5562Z" fill="white"/>
<path fill-rule="evenodd" clip-rule="evenodd" d="M149.791 5.78455L151.037 9.06232L154.999 10.1087L151.054 11.0691L149.868 14.3226L148.625 11.0426L144.662 9.99631L148.607 9.03809L149.791 5.78455Z" fill="#22B856"/>
<path fill-rule="evenodd" clip-rule="evenodd" d="M70.2293 8.16138C71.3473 8.16138 72.2513 9.06673 72.2513 10.1813C72.2513 11.296 71.3451 12.2013 70.2293 12.2013C69.1136 12.2013 68.2074 11.296 68.2074 10.1813C68.2074 9.06673 69.1136 8.16138 70.2293 8.16138Z" fill="white"/>
<path fill-rule="evenodd" clip-rule="evenodd" d="M53.4077 7.47634C51.5268 7.81336 49.5468 8.22309 47.7674 8.59536L43.6904 29.0726L39.62 28.9515L43.4831 9.55138C41.7015 9.97432 39.9706 10.4193 38.2949 10.8841L38.5903 7.84861C43.256 6.76483 48.4178 5.76916 53.7119 4.99377L53.4077 7.47634Z" fill="white"/>
<path fill-rule="evenodd" clip-rule="evenodd" d="M90.0021 2.52221C111.924 2.52221 131.967 5.09509 147.338 9.3465L147.194 9.38175C132.736 6.02027 114.942 4.03774 95.6997 4.03774C80.9794 4.03774 67.1124 5.19862 54.9344 7.24723L55.2299 4.81533C65.8887 3.33945 77.6455 2.52221 90.0021 2.52221ZM23.5512 2.81518L23.5931 12.2564C19.5514 13.7543 15.9992 15.391 13.0137 17.1378C16.277 12.1705 19.913 7.56223 23.5512 2.81518ZM23.6085 15.869L23.6592 30H28.2037L27.8531 14.2103C30.6666 13.1816 33.6565 12.2146 36.7589 11.3158L37.061 8.20985C33.7734 9.00727 30.6666 9.87738 27.7649 10.8136L27.4804 0H22.484L0 28.8237H6.59063C6.78908 28.3721 6.98973 27.9228 7.19479 27.48C9.39534 23.2065 15.4921 19.2591 23.6085 15.869Z" fill="#22B856"/>
<path fill-rule="evenodd" clip-rule="evenodd" d="M33.8431 24.819C34.961 24.819 35.865 25.7243 35.865 26.8389C35.865 27.9536 34.9588 28.8589 33.8431 28.8589C32.7273 28.8589 31.8211 27.9536 31.8211 26.8389C31.8211 25.7243 32.7251 24.819 33.8431 24.819Z" fill="white"/>
</svg>
