<svg width="35" height="36" viewBox="0 0 35 36" fill="none" xmlns="http://www.w3.org/2000/svg">
<path d="M24.0625 0.0678711H10.9375C4.89781 0.0678711 0 4.96568 0 11.0054V24.1304C0 30.1701 4.89781 35.0679 10.9375 35.0679H24.0625C30.1022 35.0679 35 30.1701 35 24.1304V11.0054C35 4.96568 30.1022 0.0678711 24.0625 0.0678711ZM31.7188 24.1304C31.7188 28.3522 28.2844 31.7866 24.0625 31.7866H10.9375C6.71563 31.7866 3.28125 28.3522 3.28125 24.1304V11.0054C3.28125 6.7835 6.71563 3.34912 10.9375 3.34912H24.0625C28.2844 3.34912 31.7188 6.7835 31.7188 11.0054V24.1304Z" fill="url(#paint0_linear_282_1066)"/>
<path d="M17.5 8.81787C12.6678 8.81787 8.75 12.7357 8.75 17.5679C8.75 22.4001 12.6678 26.3179 17.5 26.3179C22.3322 26.3179 26.25 22.4001 26.25 17.5679C26.25 12.7357 22.3322 8.81787 17.5 8.81787ZM17.5 23.0366C14.4856 23.0366 12.0312 20.5822 12.0312 17.5679C12.0312 14.5513 14.4856 12.0991 17.5 12.0991C20.5144 12.0991 22.9688 14.5513 22.9688 17.5679C22.9688 20.5822 20.5144 23.0366 17.5 23.0366Z" fill="url(#paint1_linear_282_1066)"/>
<path d="M26.9063 9.32844C27.5502 9.32844 28.0722 8.80644 28.0722 8.16251C28.0722 7.51859 27.5502 6.99658 26.9063 6.99658C26.2623 6.99658 25.7403 7.51859 25.7403 8.16251C25.7403 8.80644 26.2623 9.32844 26.9063 9.32844Z" fill="url(#paint2_linear_282_1066)"/>
<defs>
<linearGradient id="paint0_linear_282_1066" x1="3.20392" y1="31.8642" x2="31.7961" y2="3.27157" gradientUnits="userSpaceOnUse">
<stop stop-color="#FFC107"/>
<stop offset="0.507" stop-color="#F44336"/>
<stop offset="0.99" stop-color="#9C27B0"/>
</linearGradient>
<linearGradient id="paint1_linear_282_1066" x1="11.313" y1="23.7549" x2="23.687" y2="11.3809" gradientUnits="userSpaceOnUse">
<stop stop-color="#FFC107"/>
<stop offset="0.507" stop-color="#F44336"/>
<stop offset="0.99" stop-color="#9C27B0"/>
</linearGradient>
<linearGradient id="paint2_linear_282_1066" x1="26.0819" y1="8.98709" x2="27.7306" y2="7.33815" gradientUnits="userSpaceOnUse">
<stop stop-color="#FFC107"/>
<stop offset="0.507" stop-color="#F44336"/>
<stop offset="0.99" stop-color="#9C27B0"/>
</linearGradient>
</defs>
</svg>
