<svg width="25" height="24" viewBox="0 0 25 24" fill="none" xmlns="http://www.w3.org/2000/svg">
<g clip-path="url(#clip0_25_753)">
<path d="M23.8887 2.38403C23.5955 2.02551 23.1564 1.82812 22.6522 1.82812C22.378 1.82812 22.0876 1.8858 21.7892 1.99988L1.47363 9.75494C0.395504 10.1664 0.250301 10.7838 0.25964 11.1152C0.268978 11.4467 0.448971 12.0549 1.5487 12.4048C1.55529 12.4069 1.56189 12.4089 1.56848 12.4107L5.78247 13.6166L8.0614 20.1334C8.37213 21.0218 9.06958 21.5737 9.88183 21.5737C10.394 21.5737 10.8977 21.3591 11.3386 20.9533L13.9451 18.5533L17.7257 21.5975C17.7261 21.5978 17.7266 21.598 17.727 21.5984L17.7629 21.6273C17.7662 21.6299 17.7696 21.6326 17.7729 21.6352C18.1932 21.9611 18.6519 22.1332 19.0999 22.1334H19.1001C19.9755 22.1334 20.6726 21.4854 20.8757 20.4827L24.2043 4.04645C24.338 3.38672 24.2259 2.79639 23.8887 2.38403ZM7.1922 13.3876L15.3223 9.23419L10.2599 14.6133C10.177 14.7014 10.1182 14.8092 10.0893 14.9266L9.11316 18.8806L7.1922 13.3876ZM10.3859 19.9188C10.3522 19.9497 10.3184 19.9774 10.2845 20.0028L11.1901 16.3348L12.8375 17.6614L10.3859 19.9188ZM22.8261 3.76721L19.4974 20.2037C19.4654 20.361 19.363 20.727 19.0999 20.727C18.9699 20.727 18.8066 20.6561 18.6394 20.5274L14.3555 17.0781C14.3549 17.0775 14.3542 17.077 14.3535 17.0766L11.8044 15.024L19.1252 7.24512C19.3596 6.99609 19.3808 6.61469 19.1755 6.34113C18.9701 6.06757 18.5978 5.98151 18.2933 6.13715L6.25268 12.2884L1.98138 11.0663L22.2907 3.31366C22.4623 3.24811 22.582 3.23438 22.6522 3.23438C22.6952 3.23438 22.7717 3.2395 22.8001 3.27448C22.8375 3.32007 22.8851 3.47552 22.8261 3.76721Z" fill="#0A8FF0"/>
</g>
<defs>
<clipPath id="clip0_25_753">
<rect width="24" height="24" fill="white" transform="translate(0.259277)"/>
</clipPath>
</defs>
</svg>
